<?xml version="1.0" encoding="UTF-8" standalone="no"?>
<svg
   xmlns:dc="http://purl.org/dc/elements/1.1/"
   xmlns:cc="http://creativecommons.org/ns#"
   xmlns:rdf="http://www.w3.org/1999/02/22-rdf-syntax-ns#"
   xmlns:svg="http://www.w3.org/2000/svg"
   xmlns="http://www.w3.org/2000/svg"
   xmlns:sodipodi="http://sodipodi.sourceforge.net/DTD/sodipodi-0.dtd"
   xmlns:inkscape="http://www.inkscape.org/namespaces/inkscape"
   version="1.1"
   id="svg10"
   xml:space="preserve"
   width="2666.6667"
   height="2666.6667"
   viewBox="0 0 2666.6667 2666.6667"
   sodipodi:docname="Logo.svg"
   inkscape:version="1.0.2-2 (e86c870879, 2021-01-15)"><metadata
     id="metadata16"><rdf:RDF><cc:Work
         rdf:about=""><dc:format>image/svg+xml</dc:format><dc:type
           rdf:resource="http://purl.org/dc/dcmitype/StillImage" /><dc:title></dc:title></cc:Work></rdf:RDF></metadata><defs
     id="defs14"><clipPath
       clipPathUnits="userSpaceOnUse"
       id="clipPath30"><path
         d="M 0,2000 H 2000 V 0 H 0 Z"
         id="path28" /></clipPath></defs><sodipodi:namedview
     pagecolor="#ffffff"
     bordercolor="#666666"
     borderopacity="1"
     objecttolerance="10"
     gridtolerance="10"
     guidetolerance="10"
     inkscape:pageopacity="0"
     inkscape:pageshadow="2"
     inkscape:window-width="1920"
     inkscape:window-height="1002"
     id="namedview12"
     showgrid="false"
     inkscape:zoom="0.31499999"
     inkscape:cx="1333.3334"
     inkscape:cy="1587.3016"
     inkscape:window-x="-8"
     inkscape:window-y="-8"
     inkscape:window-maximized="1"
     inkscape:current-layer="g18" /><g
     id="g18"
     inkscape:groupmode="layer"
     inkscape:label="Logo"
     transform="matrix(1.3333333,0,0,-1.3333333,0,2666.6667)"><g
       id="g20"
       transform="translate(813.375,484.043)"><path
         d="m 0,0 h -18.269 v -46.791 h -5.055 V 0 H -41.593 V 4.477 H 0 Z"
         style="fill:#020909;fill-opacity:1;fill-rule:nonzero;stroke:none"
         id="path22" /></g><g
       id="g24"><g
         id="g26"
         clip-path="url(#clipPath30)"><g
           id="g32"
           transform="translate(826.0825,460.6484)"><path
             d="m 0,0 h 16.752 c 1.492,0 2.852,0.324 4.08,0.974 1.228,0.65 2.275,1.528 3.141,2.636 0.867,1.106 1.54,2.358 2.022,3.754 0.481,1.396 0.722,2.864 0.722,4.405 0,1.541 -0.278,3.02 -0.831,4.441 -0.553,1.42 -1.299,2.66 -2.238,3.719 -0.939,1.057 -2.046,1.901 -3.321,2.526 -1.277,0.626 -2.612,0.94 -4.008,0.94 L 0,23.395 Z m -5.055,-23.396 v 51.267 h 21.663 c 2.213,0 4.247,-0.469 6.101,-1.408 1.853,-0.938 3.454,-2.166 4.802,-3.682 1.348,-1.516 2.394,-3.238 3.141,-5.163 0.746,-1.927 1.119,-3.876 1.119,-5.849 0,-1.877 -0.277,-3.671 -0.83,-5.379 C 30.387,4.681 29.617,3.14 28.631,1.769 27.644,0.396 26.452,-0.76 25.056,-1.697 23.659,-2.637 22.096,-3.274 20.363,-3.611 L 32.927,-23.396 H 27.223 L 15.164,-4.479 H 0 v -18.917 z"
             style="fill:#020909;fill-opacity:1;fill-rule:nonzero;stroke:none"
             id="path34" /></g><g
           id="g36"
           transform="translate(895.6929,457.2539)"><path
             d="M 0,0 -10.326,25.345 -20.796,0 Z m -12.42,31.266 h 4.26 L 13.142,-20.002 H 7.798 l -6.643,16.03 h -23.034 l -6.571,-16.03 h -5.416 z"
             style="fill:#020909;fill-opacity:1;fill-rule:nonzero;stroke:none"
             id="path38" /></g><g
           id="g40"
           transform="translate(953.6924,462.959)"><path
             d="m 0,0 c 0,3.079 -0.433,5.907 -1.3,8.484 -0.867,2.575 -2.13,4.802 -3.791,6.679 -1.66,1.877 -3.695,3.333 -6.101,4.368 -2.409,1.034 -5.176,1.553 -8.305,1.553 H -31.844 V -21.23 h 12.347 c 3.178,0 5.981,0.542 8.413,1.625 2.43,1.083 4.464,2.574 6.101,4.476 1.636,1.902 2.876,4.14 3.719,6.716 C -0.422,-5.838 0,-3.034 0,0 m -36.899,-25.707 v 51.268 h 17.402 c 4.091,0 7.666,-0.675 10.724,-2.022 3.056,-1.348 5.606,-3.177 7.653,-5.487 C 0.926,15.741 2.466,13.033 3.502,9.929 4.536,6.823 5.055,3.513 5.055,0 c 0,-3.9 -0.578,-7.427 -1.734,-10.579 -1.155,-3.154 -2.805,-5.85 -4.946,-8.088 -2.143,-2.238 -4.718,-3.972 -7.726,-5.198 -3.009,-1.229 -6.391,-1.842 -10.146,-1.842 z"
             style="fill:#020909;fill-opacity:1;fill-rule:nonzero;stroke:none"
             id="path42" /></g><path
           d="m 968.422,488.52 h 5.055 v -51.268 h -5.055 z"
           style="fill:#020909;fill-opacity:1;fill-rule:nonzero;stroke:none"
           id="path44" /><g
           id="g46"
           transform="translate(991.3848,479.1328)"><path
             d="M 0,0 V -41.881 H -5.055 V 9.387 h 3.899 l 33.94,-42.675 V 9.315 h 5.054 v -51.196 h -4.405 z"
             style="fill:#020909;fill-opacity:1;fill-rule:nonzero;stroke:none"
             id="path48" /></g><g
           id="g50"
           transform="translate(1079.1172,444.7617)"><path
             d="m 0,0 c -4.766,-5.247 -10.254,-7.871 -16.463,-7.871 -3.468,0 -6.656,0.745 -9.568,2.238 -2.913,1.492 -5.441,3.467 -7.581,5.922 -2.143,2.454 -3.817,5.234 -5.021,8.34 -1.203,3.105 -1.805,6.294 -1.805,9.568 0,3.416 0.59,6.69 1.77,9.82 1.179,3.129 2.828,5.885 4.946,8.267 2.118,2.384 4.622,4.284 7.51,5.705 2.889,1.42 6.041,2.131 9.46,2.131 2.502,0 4.789,-0.278 6.859,-0.831 2.069,-0.554 3.911,-1.324 5.525,-2.31 1.612,-0.988 3.007,-2.166 4.187,-3.54 1.179,-1.371 2.178,-2.876 2.997,-4.512 l -3.9,-2.599 c -1.685,3.177 -3.874,5.511 -6.57,7.003 -2.697,1.492 -5.753,2.239 -9.171,2.239 -2.841,0 -5.404,-0.602 -7.69,-1.804 -2.287,-1.204 -4.237,-2.806 -5.849,-4.803 -1.613,-1.998 -2.853,-4.285 -3.719,-6.86 -0.866,-2.575 -1.3,-5.235 -1.3,-7.979 0,-2.888 0.494,-5.632 1.481,-8.231 0.986,-2.6 2.347,-4.874 4.08,-6.825 1.733,-1.949 3.766,-3.502 6.101,-4.657 2.334,-1.155 4.874,-1.732 7.618,-1.732 2.936,0 5.741,0.685 8.414,2.057 2.67,1.372 5.234,3.55 7.689,6.535 v 8.521 h -11.409 v 3.899 H 4.261 V -7.51 L 0,-7.51 Z"
             style="fill:#020909;fill-opacity:1;fill-rule:nonzero;stroke:none"
             id="path52" /></g><g
           id="g54"
           transform="translate(1108.793,463.2461)"><path
             d="m 0,0 c 0,3.081 0.542,6.149 1.625,9.208 1.083,3.057 2.66,5.788 4.729,8.194 2.07,2.408 4.622,4.37 7.655,5.886 3.032,1.517 6.473,2.274 10.326,2.274 4.573,0 8.484,-1.035 11.734,-3.104 3.249,-2.07 5.644,-4.767 7.185,-8.088 l -3.972,-2.455 c -0.819,1.685 -1.818,3.106 -2.997,4.261 -1.18,1.155 -2.443,2.095 -3.791,2.815 -1.348,0.724 -2.743,1.239 -4.187,1.553 -1.445,0.312 -2.865,0.469 -4.261,0.469 -3.081,0 -5.801,-0.625 -8.16,-1.876 C 13.527,17.884 11.541,16.247 9.929,14.226 8.316,12.204 7.101,9.929 6.283,7.402 5.464,4.875 5.055,2.311 5.055,-0.287 c 0,-2.842 0.494,-5.561 1.48,-8.16 0.986,-2.6 2.335,-4.899 4.043,-6.897 1.709,-1.998 3.731,-3.586 6.067,-4.765 2.334,-1.181 4.875,-1.77 7.618,-1.77 1.444,0 2.924,0.182 4.44,0.542 1.517,0.361 2.984,0.94 4.405,1.733 1.419,0.794 2.732,1.78 3.935,2.96 1.204,1.18 2.215,2.612 3.034,4.297 l 4.188,-2.166 c -0.82,-1.926 -1.975,-3.624 -3.467,-5.091 -1.492,-1.468 -3.152,-2.708 -4.982,-3.719 -1.83,-1.011 -3.767,-1.781 -5.812,-2.311 -2.048,-0.528 -4.057,-0.794 -6.029,-0.794 -3.516,0 -6.741,0.77 -9.677,2.311 -2.937,1.541 -5.465,3.551 -7.582,6.03 -2.118,2.479 -3.768,5.295 -4.946,8.448 C 0.59,-6.487 0,-3.273 0,0"
             style="fill:#020909;fill-opacity:1;fill-rule:nonzero;stroke:none"
             id="path56" /></g><g
           id="g58"
           transform="translate(1162.8779,462.8857)"><path
             d="m 0,0 c 0,-2.792 0.457,-5.477 1.372,-8.051 0.914,-2.576 2.214,-4.863 3.899,-6.86 1.685,-1.997 3.683,-3.587 5.994,-4.766 2.31,-1.179 4.885,-1.768 7.726,-1.768 2.889,0 5.512,0.624 7.871,1.877 2.358,1.252 4.357,2.888 5.992,4.91 1.636,2.021 2.901,4.307 3.792,6.86 0.891,2.55 1.336,5.151 1.336,7.798 0,2.791 -0.47,5.476 -1.408,8.052 -0.938,2.574 -2.252,4.849 -3.935,6.823 -1.686,1.974 -3.683,3.55 -5.993,4.729 -2.311,1.179 -4.864,1.769 -7.655,1.769 -2.888,0 -5.513,-0.613 -7.871,-1.84 C 8.762,18.305 6.764,16.681 5.128,14.659 3.49,12.637 2.226,10.35 1.336,7.799 0.445,5.246 0,2.646 0,0 m 18.991,-25.995 c -3.563,0 -6.824,0.733 -9.784,2.203 -2.961,1.468 -5.5,3.417 -7.618,5.848 -2.119,2.43 -3.755,5.211 -4.91,8.34 -1.156,3.129 -1.734,6.33 -1.734,9.604 0,3.418 0.615,6.69 1.841,9.82 1.229,3.129 2.926,5.897 5.092,8.305 2.166,2.406 4.717,4.319 7.653,5.74 2.936,1.42 6.115,2.131 9.531,2.131 3.563,0 6.826,-0.76 9.786,-2.275 2.961,-1.517 5.487,-3.503 7.582,-5.958 2.094,-2.455 3.718,-5.235 4.874,-8.34 1.155,-3.105 1.733,-6.271 1.733,-9.494 0,-3.419 -0.614,-6.693 -1.842,-9.822 -1.227,-3.129 -2.913,-5.884 -5.054,-8.267 -2.143,-2.383 -4.683,-4.285 -7.619,-5.705 -2.936,-1.42 -6.113,-2.13 -9.531,-2.13"
             style="fill:#020909;fill-opacity:1;fill-rule:nonzero;stroke:none"
             id="path60" /></g><g
           id="g62"
           transform="translate(1260.8652,437.252)"><path
             d="M 0,0 V 42.099 L -18.702,9.531 h -2.961 L -40.365,42.099 V 0 h -5.055 v 51.268 h 5.199 L -20.219,16.175 -0.073,51.268 H 5.055 L 5.055,0 Z"
             style="fill:#020909;fill-opacity:1;fill-rule:nonzero;stroke:none"
             id="path64" /></g><g
           id="g66"
           transform="translate(1283.8271,460.6484)"><path
             d="m 0,0 h 16.392 c 1.491,0 2.852,0.324 4.079,0.974 1.228,0.65 2.275,1.516 3.141,2.599 0.867,1.083 1.54,2.334 2.022,3.755 0.481,1.419 0.722,2.9 0.722,4.441 0,1.588 -0.278,3.093 -0.83,4.513 -0.553,1.419 -1.299,2.659 -2.239,3.718 -0.937,1.06 -2.046,1.889 -3.321,2.492 -1.277,0.602 -2.612,0.903 -4.008,0.903 H 0 Z m -5.055,-23.396 v 51.267 h 21.231 c 2.213,0 4.247,-0.469 6.1,-1.408 1.854,-0.938 3.454,-2.166 4.802,-3.682 1.348,-1.516 2.407,-3.238 3.177,-5.163 0.77,-1.927 1.155,-3.876 1.155,-5.849 0,-2.12 -0.36,-4.153 -1.082,-6.101 -0.723,-1.95 -1.733,-3.672 -3.033,-5.163 -1.3,-1.492 -2.853,-2.697 -4.658,-3.61 -1.805,-0.916 -3.815,-1.374 -6.029,-1.374 H 0 v -18.917 z"
             style="fill:#020909;fill-opacity:1;fill-rule:nonzero;stroke:none"
             id="path68" /></g><g
           id="g70"
           transform="translate(1348.7422,457.2539)"><path
             d="M 0,0 -10.326,25.345 -20.796,0 Z m -12.42,31.266 h 4.26 L 13.143,-20.002 H 7.798 L 1.155,-3.972 H -21.88 l -6.571,-16.03 h -5.415 z"
             style="fill:#020909;fill-opacity:1;fill-rule:nonzero;stroke:none"
             id="path72" /></g><g
           id="g74"
           transform="translate(1374.3037,479.1328)"><path
             d="M 0,0 V -41.881 H -5.055 V 9.387 h 3.9 L 32.783,-33.288 V 9.315 h 5.055 v -51.196 h -4.405 z"
             style="fill:#020909;fill-opacity:1;fill-rule:nonzero;stroke:none"
             id="path76" /></g><g
           id="g78"
           transform="translate(1425.2822,488.5195)"><path
             d="M 0,0 16.752,-27.584 33.649,0 h 5.488 L 19.279,-32.205 v -19.063 h -5.053 v 19.207 L -5.561,0 Z"
             style="fill:#020909;fill-opacity:1;fill-rule:nonzero;stroke:none"
             id="path80" /></g><path
           d="m 922.88,986.467 h -9.767 V 745.236 h 9.767 z m -53.083,13.438 h -9.767 v -254.67 h 9.767 z m -26.546,29.308 h -9.767 V 745.235 h 9.767 z M 815.865,745.235 h -9.767 v 138.054 h 9.767 z"
           style="fill:#ffef47;fill-opacity:1;fill-rule:nonzero;stroke:none"
           id="path82" /><path
           d="m 1192.381,889.394 h -9.767 V 745.236 h 9.767 z m -27.386,149.56 h -9.768 V 745.235 h 9.768 z m -26.714,-88.881 h -9.767 V 745.235 h 9.767 z m -53.083,27.033 h -9.768 V 745.235 h 9.768 z m -27.386,174.101 h -9.767 V 745.235 h 9.767 z m -25.542,-40.508 h -9.767 V 745.236 h 9.767 z m -54.772,0 h -9.767 V 745.236 h 9.767 z M 950.111,745.235 h -9.767 v 402.332 h 9.767 z"
           style="fill:#020909;fill-opacity:1;fill-rule:nonzero;stroke:none"
           id="path84" /><g
           id="g86"
           transform="translate(1004.8838,1140.9233)"><path
             d="m 0,0 c 9.985,5.634 32.55,20.625 41.101,45.012 8.525,24.314 8.788,92.105 8.788,92.105 L 48.94,183.876 C 49.009,178.95 48.912,153.417 40.218,130.603 28.882,121.167 5.227,101.475 1.767,77.258 1.117,72.71 0.532,68.161 0,63.667 v 47.022 c 9.985,5.635 32.55,20.625 41.101,45.012 8.525,24.315 8.788,92.105 8.788,92.105 l -0.949,46.76 C 49.009,289.64 48.912,264.106 40.218,241.292 28.882,231.856 5.227,212.165 1.767,187.947 1.117,183.399 0.532,178.851 0,174.356 v 27.108 c 8.193,13.781 23.532,44.15 20.397,74.077 -3.026,28.893 -10.071,40.055 -15.093,72.189 -8.52,54.516 -10.188,74.528 -10.188,74.528 0,0 -1.668,-20.012 -10.188,-74.528 -5.021,-32.134 -12.067,-43.296 -15.093,-72.189 -3.135,-29.927 12.204,-60.296 20.398,-74.077 v -27.108 c -0.532,4.495 -1.118,9.043 -1.767,13.591 -3.46,24.218 -27.115,43.909 -38.451,53.345 -8.695,22.814 -8.792,48.348 -8.723,53.274 l -0.948,-46.76 c 0,0 0.262,-67.79 8.787,-92.105 8.552,-24.387 31.116,-39.377 41.102,-45.012 V 63.667 c -0.532,4.494 -1.118,9.043 -1.767,13.591 -3.46,24.217 -27.115,43.909 -38.451,53.345 -8.695,22.814 -8.792,48.347 -8.723,53.273 l -0.948,-46.759 c 0,0 0.262,-67.791 8.787,-92.105 C -42.317,20.625 -19.753,5.634 -9.767,0 V -30.225 -45.49 c -0.532,4.495 -1.118,9.044 -1.767,13.592 -3.46,24.217 -27.115,43.908 -38.451,53.344 -8.695,22.814 -8.792,48.348 -8.723,53.274 l -0.948,-46.76 c 0,0 0.262,-67.79 8.787,-92.105 8.552,-24.387 31.116,-39.377 41.102,-45.011 v -50.543 -235.989 H 0 v 235.989 50.543 c 9.985,5.634 32.55,20.624 41.101,45.011 8.525,24.315 8.788,92.105 8.788,92.105 L 48.94,74.72 C 49.009,69.794 48.912,44.26 40.218,21.446 28.882,12.01 5.227,-7.681 1.767,-31.898 1.117,-36.446 0.532,-40.995 0,-45.49 v 15.265 z"
             style="fill:#020909;fill-opacity:1;fill-rule:nonzero;stroke:none"
             id="path88" /></g><g
           id="g90"
           transform="translate(938.2842,1059.1021)"><path
             d="m 0,0 c 8.525,24.314 8.788,92.105 8.788,92.105 l -0.949,46.76 c 0.069,-4.927 -0.028,-30.46 -8.722,-53.274 -11.336,-9.436 -34.992,-29.127 -38.451,-53.344 -0.65,-4.549 -1.235,-9.098 -1.767,-13.593 v 32.943 14.081 c 9.986,5.635 32.55,20.625 41.101,45.012 8.525,24.314 8.788,92.104 8.788,92.104 l -0.949,46.761 c 0.069,-4.927 -0.028,-30.46 -8.722,-53.274 -11.336,-9.437 -34.992,-29.128 -38.451,-53.345 -0.65,-4.548 -1.235,-9.097 -1.767,-13.592 v 27.108 c 8.193,13.781 23.532,44.151 20.397,74.077 -3.026,28.893 -10.071,40.055 -15.093,72.189 -8.519,54.516 -10.188,74.529 -10.188,74.529 0,0 -1.668,-20.013 -10.187,-74.529 -5.022,-32.134 -12.067,-43.296 -15.094,-72.189 -3.135,-29.926 12.204,-60.296 20.398,-74.077 v -27.108 c -0.532,4.495 -1.117,9.044 -1.767,13.592 -3.46,24.217 -27.115,43.908 -38.451,53.345 -8.694,22.814 -8.792,48.347 -8.723,53.274 l -0.948,-46.761 c 0,0 0.262,-67.79 8.788,-92.104 8.551,-24.387 31.115,-39.378 41.101,-45.012 V 51.597 18.654 c -0.532,4.495 -1.117,9.044 -1.767,13.593 -3.46,24.217 -27.115,43.908 -38.451,53.344 -8.694,22.814 -8.792,48.347 -8.723,53.274 l -0.948,-46.76 c 0,0 0.262,-67.791 8.788,-92.105 8.551,-24.387 31.115,-39.377 41.101,-45.012 v -45.49 c -0.532,4.495 -1.117,9.044 -1.767,13.592 -3.46,24.218 -27.115,43.909 -38.451,53.345 -8.694,22.814 -8.792,48.347 -8.723,53.274 l -0.948,-46.76 c 0,0 0.262,-67.79 8.788,-92.105 8.551,-24.387 31.115,-39.378 41.101,-45.011 v -50.543 -109.157 h 9.767 v 109.157 50.543 c 9.986,5.633 32.55,20.624 41.101,45.011 8.525,24.315 8.788,92.105 8.788,92.105 l -0.949,46.76 c 0.069,-4.927 -0.028,-30.46 -8.722,-53.274 -11.336,-9.436 -34.992,-29.127 -38.451,-53.345 -0.65,-4.548 -1.235,-9.097 -1.767,-13.592 v 45.49 C -31.115,-39.377 -8.551,-24.387 0,0"
             style="fill:#ffef47;fill-opacity:1;fill-rule:nonzero;stroke:none"
             id="path92" /></g><g
           id="g94"
           transform="translate(830.7065,949.9463)"><path
             d="M 0,0 C 8.525,24.314 8.788,92.104 8.788,92.104 L 7.839,138.865 C 7.908,133.938 7.811,108.404 -0.883,85.591 -12.219,76.154 -35.875,56.463 -39.334,32.246 c -0.65,-4.549 -1.235,-9.098 -1.767,-13.593 v 47.024 c 9.986,5.635 32.55,20.625 41.101,45.012 8.525,24.315 8.788,92.105 8.788,92.105 l -0.949,46.76 c 0.069,-4.926 -0.028,-30.46 -8.722,-53.274 -11.336,-9.436 -34.992,-29.127 -38.451,-53.344 -0.65,-4.549 -1.235,-9.098 -1.767,-13.593 v 27.109 c 8.193,13.78 23.533,44.151 20.397,74.077 -3.026,28.893 -10.071,40.055 -15.093,72.189 -8.519,54.515 -10.188,74.529 -10.188,74.529 0,0 -1.668,-20.014 -10.187,-74.529 -5.022,-32.134 -12.067,-43.296 -15.094,-72.189 -3.135,-29.926 12.204,-60.296 20.398,-74.077 v -27.108 c -0.532,4.495 -1.117,9.044 -1.767,13.592 -3.46,24.217 -27.115,43.908 -38.451,53.344 -8.695,22.814 -8.791,48.348 -8.723,53.274 l -0.948,-46.76 c 0,0 0.262,-67.79 8.788,-92.105 8.551,-24.387 31.115,-39.377 41.101,-45.011 V 18.654 c -0.532,4.495 -1.117,9.044 -1.767,13.592 -3.46,24.217 -27.115,43.908 -38.451,53.345 -8.695,22.814 -8.791,48.347 -8.723,53.274 l -0.948,-46.761 c 0,0 0.262,-67.79 8.788,-92.104 8.551,-24.388 31.115,-39.378 41.101,-45.012 v -45.49 c -0.532,4.495 -1.117,9.044 -1.767,13.592 -3.46,24.218 -27.115,43.908 -38.451,53.345 -8.695,22.813 -8.791,48.347 -8.723,53.273 l -0.948,-46.76 c 0,0 0.262,-67.79 8.788,-92.104 8.551,-24.388 31.115,-39.378 41.101,-45.012 v -50.543 h 9.767 v 50.543 c 9.986,5.634 32.55,20.624 41.101,45.012 8.525,24.314 8.788,92.104 8.788,92.104 l -0.949,46.76 c 0.069,-4.926 -0.028,-30.46 -8.722,-53.273 -11.336,-9.437 -34.992,-29.127 -38.451,-53.345 -0.65,-4.548 -1.235,-9.098 -1.767,-13.592 v 45.49 C -31.115,-39.378 -8.551,-24.388 0,0"
             style="fill:#ffef47;fill-opacity:1;fill-rule:nonzero;stroke:none"
             id="path96" /></g><g
           id="g98"
           transform="translate(1153.6855,1059.1021)"><path
             d="m 0,0 c 8.525,24.314 8.787,92.105 8.787,92.105 l -0.948,46.76 c 0.069,-4.927 -0.028,-30.46 -8.723,-53.274 -11.336,-9.436 -34.991,-29.127 -38.45,-53.344 -0.65,-4.549 -1.235,-9.098 -1.768,-13.593 v 32.943 14.081 c 9.987,5.634 32.55,20.625 41.102,45.012 8.525,24.314 8.787,92.104 8.787,92.104 l -0.948,46.761 c 0.069,-4.927 -0.028,-30.46 -8.723,-53.274 -11.336,-9.437 -34.991,-29.128 -38.45,-53.345 -0.65,-4.548 -1.235,-9.097 -1.768,-13.592 v 27.108 c 8.194,13.781 23.533,44.151 20.398,74.077 -3.026,28.893 -10.071,40.055 -15.093,72.189 -8.519,54.516 -10.188,74.529 -10.188,74.529 0,0 -1.668,-20.013 -10.188,-74.529 -5.021,-32.134 -12.066,-43.296 -15.094,-72.189 -3.134,-29.926 12.204,-60.296 20.399,-74.077 v -27.108 c -0.532,4.495 -1.118,9.044 -1.768,13.592 -3.46,24.217 -27.114,43.908 -38.45,53.345 -8.694,22.814 -8.792,48.347 -8.723,53.274 l -0.948,-46.761 c 0,0 0.262,-67.79 8.787,-92.104 8.552,-24.387 31.116,-39.377 41.102,-45.012 V 51.597 18.654 c -0.532,4.495 -1.118,9.044 -1.768,13.593 -3.46,24.217 -27.114,43.908 -38.45,53.344 -8.694,22.814 -8.792,48.347 -8.723,53.274 l -0.948,-46.76 c 0,0 0.262,-67.791 8.787,-92.105 8.552,-24.387 31.116,-39.377 41.102,-45.012 v -45.49 c -0.532,4.495 -1.118,9.044 -1.768,13.592 -3.46,24.218 -27.114,43.909 -38.45,53.345 -8.694,22.814 -8.792,48.347 -8.723,53.274 l -0.948,-46.76 c 0,0 0.262,-67.79 8.787,-92.105 8.552,-24.387 31.116,-39.378 41.102,-45.011 v -50.543 -109.157 h 9.766 v 109.157 50.543 c 9.987,5.633 32.55,20.624 41.102,45.011 8.525,24.315 8.787,92.105 8.787,92.105 l -0.948,46.76 c 0.069,-4.927 -0.028,-30.46 -8.723,-53.274 -11.336,-9.436 -34.991,-29.127 -38.45,-53.345 -0.65,-4.548 -1.235,-9.097 -1.768,-13.592 v 45.49 C -31.115,-39.377 -8.552,-24.387 0,0"
             style="fill:#020909;fill-opacity:1;fill-rule:nonzero;stroke:none"
             id="path100" /></g><g
           id="g102"
           transform="translate(1261.2627,950.8555)"><path
             d="M 0,0 C 8.525,24.314 8.788,92.104 8.788,92.104 L 7.84,138.865 c 0.068,-4.926 -0.028,-30.46 -8.723,-53.274 -11.336,-9.437 -34.991,-29.128 -38.451,-53.345 -0.649,-4.548 -1.235,-9.097 -1.768,-13.592 v 47.024 c 9.987,5.634 32.551,20.624 41.102,45.011 8.525,24.315 8.788,92.105 8.788,92.105 l -0.948,46.76 c 0.068,-4.926 -0.028,-30.46 -8.723,-53.274 -11.336,-9.436 -34.991,-29.127 -38.451,-53.344 -0.649,-4.548 -1.235,-9.097 -1.768,-13.592 v 27.108 c 8.195,13.781 23.534,44.151 20.399,74.077 -3.026,28.893 -10.072,40.055 -15.094,72.189 -8.519,54.516 -10.187,74.529 -10.187,74.529 0,0 -1.668,-20.013 -10.189,-74.529 -5.021,-32.134 -12.066,-43.296 -15.093,-72.189 -3.134,-29.926 12.204,-60.297 20.398,-74.077 v -27.109 c -0.532,4.495 -1.117,9.044 -1.767,13.593 -3.46,24.217 -27.115,43.908 -38.451,53.344 -8.694,22.814 -8.792,48.348 -8.723,53.274 l -0.948,-46.76 c 0,0 0.262,-67.79 8.788,-92.105 8.551,-24.387 31.115,-39.377 41.101,-45.012 V 18.653 c -0.532,4.495 -1.117,9.044 -1.767,13.593 -3.46,24.217 -27.115,43.908 -38.451,53.345 -8.694,22.813 -8.792,48.347 -8.723,53.274 l -0.948,-46.761 c 0,0 0.262,-67.79 8.788,-92.104 8.551,-24.388 31.115,-39.378 41.101,-45.013 v -45.489 c -0.532,4.494 -1.117,9.044 -1.767,13.592 -3.46,24.217 -27.115,43.908 -38.451,53.345 -8.694,22.813 -8.792,48.347 -8.723,53.273 l -0.948,-46.76 c 0,0 0.262,-67.79 8.788,-92.104 8.551,-24.388 31.115,-39.378 41.101,-45.012 v -50.543 h 9.766 v 50.543 c 9.987,5.634 32.551,20.624 41.102,45.012 8.525,24.314 8.788,92.104 8.788,92.104 L 7.84,29.708 c 0.068,-4.926 -0.028,-30.46 -8.723,-53.273 -11.336,-9.437 -34.991,-29.128 -38.451,-53.345 -0.649,-4.548 -1.235,-9.097 -1.768,-13.592 v 45.49 C -31.115,-39.378 -8.551,-24.388 0,0"
             style="fill:#020909;fill-opacity:1;fill-rule:nonzero;stroke:none"
             id="path104" /></g><g
           id="g106"
           transform="translate(746.0391,720.625)"><path
             d="m 0,0 -33.105,-87.894 h -8.631 -33.01 -61.135 -32.841 -8.7 L -210.458,0 h 43.305 l 20.487,-57.58 H -63.96 L -43.473,0 Z m -105.313,-173.807 -8.997,25.287 h 17.994 z m 39.647,55.601 h -19.865 -39.564 -19.697 -21.236 l 60.752,-161.637 60.753,161.637 z"
             style="fill:#020909;fill-opacity:1;fill-rule:nonzero;stroke:none"
             id="path108" /></g><g
           id="g110"
           transform="translate(771.7822,720.625)"><path
             d="M 0,0 H 149.434 V -30.313 H 37.016 v -57.581 h 105.411 v -30.312 H 37.016 v -63.978 h 117.292 v -30.314 H 0 Z"
             style="fill:#ffef47;fill-opacity:1;fill-rule:nonzero;stroke:none"
             id="path112" /></g><g
           id="g114"
           transform="translate(958.6895,720.625)"><path
             d="m 0,0 h 37.015 v -182.184 h 101.298 v -30.314 H 0 Z"
             style="fill:#020909;fill-opacity:1;fill-rule:nonzero;stroke:none"
             id="path116" /></g><g
           id="g118"
           transform="translate(1125.0313,720.625)"><path
             d="M 0,0 H 149.434 V -30.313 H 37.016 v -57.581 h 105.411 v -30.312 H 37.016 v -63.978 h 117.293 v -30.314 H 0 Z"
             style="fill:#020909;fill-opacity:1;fill-rule:nonzero;stroke:none"
             id="path120" /></g><g
           id="g122"
           transform="translate(1300.3613,580.7881)"><path
             d="m 0,0 h 36.559 c 1.523,-29.399 19.498,-45.851 48.897,-45.851 24.829,0 41.586,11.881 41.586,31.532 0,23.459 -24.068,28.333 -54.382,36.711 -32.597,9.293 -67.329,21.783 -67.329,63.216 0,41.129 34.273,58.19 74.794,58.19 46.917,0 75.402,-22.24 77.534,-66.872 h -36.558 c -1.676,25.743 -17.67,36.101 -41.738,36.101 -18.888,0 -37.015,-6.854 -37.015,-26.2 0,-20.564 20.716,-25.896 47.982,-33.36 46.309,-12.49 73.728,-27.419 73.728,-66.111 0,-44.936 -37.931,-63.977 -78.297,-63.977 C 32.293,-76.621 1.219,-47.526 0,0"
             style="fill:#020909;fill-opacity:1;fill-rule:nonzero;stroke:none"
             id="path124" /></g></g></g></g></svg>
