<svg width="48" height="48" viewBox="0 0 48 48" fill="none" xmlns="http://www.w3.org/2000/svg">
<path d="M39 43.5H38.745C9.27001 41.805 5.085 16.935 4.50001 9.345C4.45287 8.75487 4.52264 8.16124 4.70532 7.59812C4.888 7.035 5.17999 6.51346 5.56458 6.06338C5.94917 5.6133 6.41878 5.24353 6.94652 4.97526C7.47426 4.70699 8.04974 4.54548 8.64001 4.5H16.905C17.5058 4.49942 18.093 4.67927 18.5905 5.01624C19.0879 5.35322 19.4727 5.83181 19.695 6.39L21.975 12C22.1945 12.5453 22.249 13.1431 22.1317 13.7191C22.0143 14.2952 21.7304 14.824 21.315 15.24L18.12 18.465C18.6191 21.3011 19.9773 23.9155 22.0108 25.9544C24.0444 27.9934 26.6552 29.3585 29.49 29.865L32.745 26.64C33.1673 26.2292 33.7011 25.9519 34.2799 25.8425C34.8588 25.7331 35.457 25.7966 36 26.025L41.655 28.29C42.2048 28.5193 42.6738 28.9071 43.0024 29.404C43.331 29.9009 43.5042 30.4843 43.5 31.08V39C43.5 40.1935 43.0259 41.3381 42.182 42.182C41.3381 43.0259 40.1935 43.5 39 43.5ZM9.00001 7.5C8.60218 7.5 8.22065 7.65804 7.93935 7.93934C7.65804 8.22065 7.50001 8.60218 7.50001 9V9.12C8.19001 18 12.615 39 38.91 40.5C39.1071 40.5122 39.3046 40.4853 39.4913 40.421C39.6779 40.3567 39.8501 40.2561 39.9978 40.1251C40.1455 39.9941 40.2659 39.8353 40.3521 39.6576C40.4383 39.48 40.4885 39.2871 40.5 39.09V31.08L34.845 28.815L30.54 33.09L29.82 33C16.77 31.365 15 18.315 15 18.18L14.91 17.46L19.17 13.155L16.92 7.5H9.00001Z" fill="#D9D9D9"/>
</svg>
