<svg width="48" height="48" viewBox="0 0 48 48" fill="none" xmlns="http://www.w3.org/2000/svg">
<path d="M43.125 6.24408C42.7626 5.93016 42.3216 5.7207 41.8493 5.63813C41.377 5.55556 40.8912 5.60299 40.4438 5.77533L5.83125 19.3691C5.30017 19.5748 4.85042 19.9477 4.54985 20.4315C4.24928 20.9153 4.11421 21.4837 4.16501 22.0509C4.21581 22.6182 4.44973 23.1536 4.83147 23.5762C5.21321 23.9989 5.72207 24.286 6.28125 24.3941L15.375 26.2128V37.5003C15.3756 38.0175 15.529 38.523 15.8159 38.9533C16.1027 39.3836 16.5103 39.7196 16.9875 39.9191C17.3092 40.0502 17.6526 40.1201 18 40.1253C18.345 40.1274 18.687 40.0605 19.0058 39.9285C19.3246 39.7965 19.6137 39.602 19.8563 39.3566L24.975 34.2378L32.625 40.9691C33.0989 41.394 33.7136 41.6278 34.35 41.6253C34.6243 41.6276 34.8969 41.5832 35.1563 41.4941C35.5892 41.3564 35.9783 41.1072 36.2844 40.7715C36.5905 40.4358 36.8028 40.0254 36.9 39.5816L43.9688 8.81283C44.0744 8.3484 44.0517 7.86398 43.903 7.41147C43.7544 6.95896 43.4855 6.55542 43.125 6.24408V6.24408ZM6.43125 21.8441C6.41814 21.765 6.43358 21.6839 6.4748 21.6152C6.51602 21.5465 6.58034 21.4947 6.65625 21.4691L35.625 10.0878L16.2375 24.0941L6.73125 22.1816C6.64839 22.1723 6.57189 22.1327 6.5165 22.0704C6.4611 22.0081 6.43074 21.9275 6.43125 21.8441V21.8441ZM18.2625 37.7628C18.2105 37.8173 18.1426 37.854 18.0685 37.8674C17.9943 37.8809 17.9179 37.8705 17.85 37.8378C17.7841 37.8091 17.7278 37.762 17.6879 37.7021C17.648 37.6423 17.6262 37.5722 17.625 37.5003V27.7691L23.2688 32.7566L18.2625 37.7628ZM34.725 39.0753C34.7122 39.1404 34.6824 39.2008 34.6386 39.2506C34.5948 39.3004 34.5386 39.3376 34.4757 39.3586C34.4128 39.3795 34.3455 39.3835 34.2806 39.3699C34.2157 39.3564 34.1555 39.3259 34.1063 39.2816L18.3 25.3691L41.7375 8.45658L34.725 39.0753Z" fill="#D9D9D9"/>
</svg>
