<svg width="48" height="48" viewBox="0 0 48 48" fill="none" xmlns="http://www.w3.org/2000/svg">
<path d="M24 4.875C20.6651 4.87554 17.3882 5.74813 14.4947 7.40617C11.6011 9.06421 9.19141 11.4501 7.50467 14.327C5.81793 17.2039 4.9128 20.4719 4.87909 23.8067C4.84538 27.1414 5.68426 30.4271 7.3125 33.3375L5.6625 39.0938C5.52776 39.5443 5.51742 40.0228 5.63257 40.4787C5.74772 40.9347 5.98407 41.3509 6.31657 41.6834C6.64907 42.0159 7.06534 42.2523 7.52125 42.3674C7.97716 42.4826 8.45573 42.4722 8.90625 42.3375L14.6625 40.6875C17.2131 42.1155 20.057 42.9399 22.9759 43.0973C25.8948 43.2546 28.8109 42.7408 31.5002 41.5953C34.1895 40.4498 36.5805 38.7031 38.4894 36.4894C40.3983 34.2756 41.7744 31.6538 42.5119 28.8252C43.2494 25.9966 43.3287 23.0367 42.7437 20.1727C42.1587 17.3087 40.925 14.6169 39.1374 12.3041C37.3498 9.99134 35.0558 8.1191 32.4316 6.83123C29.8075 5.54336 26.9231 4.87415 24 4.875V4.875ZM24 40.875C20.9712 40.8741 17.9985 40.0581 15.3937 38.5125C15.2147 38.417 15.0154 38.3655 14.8125 38.3625C14.711 38.3564 14.6093 38.3691 14.5125 38.4L8.2875 40.1813C8.22234 40.2013 8.15295 40.2032 8.08678 40.1868C8.02062 40.1704 7.96018 40.1362 7.91198 40.088C7.86377 40.0398 7.82962 39.9794 7.81319 39.9132C7.79676 39.847 7.79868 39.7777 7.81875 39.7125L9.6 33.4875C9.64205 33.3407 9.65376 33.1868 9.63442 33.0353C9.61508 32.8838 9.56509 32.7378 9.4875 32.6062C7.58863 29.4036 6.80226 25.6629 7.25088 21.9667C7.6995 18.2706 9.35791 14.8266 11.9678 12.1712C14.5777 9.51578 17.9925 7.79806 21.6803 7.28561C25.3681 6.77315 29.1219 7.49472 32.3569 9.33792C35.5919 11.1811 38.1265 14.0425 39.5659 17.4762C41.0053 20.91 41.2687 24.7234 40.315 28.3225C39.3613 31.9215 37.244 35.1041 34.2931 37.3745C31.3422 39.6449 27.7233 40.8756 24 40.875V40.875ZM33.6562 27.15L29.8125 24.9563C29.4079 24.728 28.95 24.6113 28.4856 24.6178C28.0211 24.6244 27.5667 24.7541 27.1687 24.9938L24.7687 26.4375C23.4047 25.7117 22.2883 24.5953 21.5625 23.2313L23.0062 20.8313C23.2459 20.4333 23.3756 19.9789 23.3822 19.5144C23.3887 19.05 23.272 18.5921 23.0437 18.1875L20.85 14.3438C20.637 13.9748 20.331 13.6681 19.9625 13.4543C19.5941 13.2405 19.176 13.1269 18.75 13.125C17.0625 13.125 15.4438 13.7941 14.2488 14.9856C13.0538 16.1771 12.38 17.7937 12.375 19.4813C12.3725 21.6004 12.7878 23.6992 13.5971 25.6578C14.4063 27.6163 15.5937 29.3961 17.0913 30.8955C18.5889 32.3948 20.3673 33.5842 22.3249 34.3958C24.2825 35.2073 26.3809 35.625 28.5 35.625H28.5187C30.2063 35.62 31.8229 34.9462 33.0144 33.7512C34.2059 32.5562 34.875 30.9375 34.875 29.25C34.8731 28.824 34.7595 28.4059 34.5457 28.0375C34.3319 27.669 34.0252 27.363 33.6562 27.15ZM28.5187 33.375H28.5C24.8184 33.37 21.2893 31.904 18.6877 29.299C16.0862 26.6939 14.625 23.1629 14.625 19.4813C14.63 18.3905 15.0667 17.3461 15.8398 16.5765C16.6128 15.807 17.6592 15.375 18.75 15.375C18.8078 15.3797 18.8615 15.4066 18.9 15.45L21.0937 19.2938C21.1239 19.3524 21.138 19.4179 21.1347 19.4838C21.1314 19.5496 21.1108 19.6134 21.075 19.6688L19.3312 22.6125C19.2325 22.764 19.1739 22.9381 19.1607 23.1185C19.1476 23.2988 19.1805 23.4796 19.2562 23.6438C20.2813 25.9061 22.0939 27.7187 24.3562 28.7438C24.5204 28.8195 24.7012 28.8524 24.8815 28.8393C25.0619 28.8261 25.236 28.7675 25.3875 28.6688L28.3312 26.925C28.3866 26.8892 28.4504 26.8686 28.5162 26.8653C28.5821 26.862 28.6476 26.8761 28.7062 26.9063L32.55 29.1C32.5934 29.1385 32.6203 29.1922 32.625 29.25C32.625 30.3408 32.193 31.3872 31.4234 32.1602C30.6539 32.9333 29.6095 33.37 28.5187 33.375V33.375Z" fill="#D9D9D9"/>
</svg>
